<?xml version="1.0" encoding="UTF-8"?><svg xmlns="http://www.w3.org/2000/svg" viewBox="0 0 288.69 349.47"><defs><style>.e{fill:#820c04;}.f{fill:#da453b;}.g{font-family:Quicksand-Regular, Quicksand;font-size:48px;}</style></defs><g id="a"/><g id="b"><g id="c"><g id="d"><text class="g" transform="translate(76.22 57.41) rotate(-21.19) scale(1.26 1)"><tspan x="0" y="0">G</tspan></text><text class="g" transform="translate(113.25 43.13) rotate(-5.47) scale(1.26 1)"><tspan x="0" y="0">a</tspan></text><text class="g" transform="translate(148 40.65) rotate(4.45) scale(1.26 1)"><tspan x="0" y="0">l</tspan></text><text class="g" transform="translate(161.6 41.69) rotate(10.26) scale(1.26 1)"><tspan x="0" y="0">l</tspan></text><text class="g" transform="translate(173.53 42.71) rotate(20.07) scale(1.26 1)"><tspan x="0" y="0">o</tspan></text><text class="g" transform="translate(37.87 302.63) rotate(30.87) scale(1.5 1)"><tspan x="0" y="0">H</tspan></text><text class="g" transform="translate(97.75 333.76) rotate(9.17) scale(1.5 1)"><tspan x="0" y="0">u</tspan></text><text class="g" transform="translate(150.71 339.87) rotate(-8.01) scale(1.5 1)"><tspan x="0" y="0">s</tspan></text><text class="g" transform="translate(196.36 332.01) rotate(-25.28) scale(1.5 1)"><tspan x="0" y="0">e</tspan></text><text class="g" transform="translate(241.14 308.17) rotate(-40.24) scale(1.5 1)"><tspan x="0" y="0">t</tspan></text><circle class="f" cx="147.93" cy="174.78" r="121.56"/></g><g><path class="e" d="M48.71,133.21c9.55-.69,19.37,.69,28.4,4.01,4.58,1.65,9.3,3.35,13.14,6.45,3.84,3.05,7.25,6.71,9.45,11.22l-.42,.43c-2.28-1.03-4.33-2.2-6.38-3.31l-6-3.37c-5.89-3.45-11.42-7.54-17.96-9.77-6.5-2.58-13.25-4.23-20.25-5.07v-.6h.01Z"/><path class="e" d="M91.48,160.51c-5.54-4.38-11.51-8.01-17.95-10.81-3.15-1.37-6.56-1.99-9.65-3.51-3.26-1.54-6.37-3.03-9.42-5.19l.1-.59c5.64-1.37,11.45-.55,16.44,2.13,3.2,1.88,6.35,3.82,9.33,6.01,4.35,3.31,8.32,7.19,11.58,11.53l-.43,.42h0Z"/><path class="e" d="M87.43,165.6c-7.07-.57-14.07-.01-20.87,1.8-3.31,.89-6.31,2.57-9.62,3.46-3.29,.93-6.58,1.91-10.47,2.49l-.33-.5c3.12-4.84,8.29-8.27,13.9-9.4,3.73-.61,7.46-1.06,11.23-1.13,5.52,0,11.12,.87,16.29,2.69l-.13,.59h0Z"/><path class="e" d="M91.34,200.47c-4.7,7.81-12.58,13.79-21.24,16.83-3.19,1.02-6.29,2.13-9.74,1.96-.57-.07-1.13-.29-1.6-.68-1.25-1.05-1.18-3.15,.31-4.15,.53-.38,1.29-.72,1.75-.93,9.89-4.49,18.65-10.51,26.61-17.97l.51,.32c-1.77,5.97-5.65,11.27-10.57,15.3-4.45,3.79-10.06,5.62-15.53,7.31,1.39-1.08,1.05-3.48-.69-3.94,.9,.16,2.5-.06,3.6-.2,10.06-1.5,19.46-6.27,26.09-14.21l.49,.35h0Z"/><path class="e" d="M107.58,214c16.41,3.58,34.09-.93,46.42-12.28,9.39-9,16.65-19.66,23.56-30.69l.56,.2c-.49,3.88-1.57,7.66-2.99,11.31-3.68,9.77-10.31,18.27-18.95,24.17-7.63,5.43-16.57,9.35-25.86,10.29-7.78,.86-15.66,.07-22.92-2.43l.16-.58h0Z"/><path class="e" d="M114.33,156.45c11.32-8,25.92-10.52,39.48-8.06,4.64,.81,9.03,2.82,12.85,5.53l-3.68,1.98c.78-3.85,2.8-7.48,6.01-9.77l.48,.36c-1.09,3.16-1.73,6.55-1.51,9.83l.21,3.49-3.9-1.51c-3.42-1.35-8.39-2.95-11.9-4.14-8.06-2.81-16.88-2.93-25.28-1.3-4.26,.84-8.44,2.26-12.46,4.12l-.3-.52h0Z"/><path class="e" d="M181.55,128.79c3.16-7.63,10.52-13.29,18.78-14.39l-.37,2.15c-6.21-2.75-11.09-8.59-12.6-15.29-.94-3.39-.58-7.47-.34-10.96l3.01,2.91c1.7,1.55,3.65,3.51,5.75,3.78,.2,0,.27-.04,.36-.08,.6-.46,.87-1.24,1.21-2.21,.67-1.79,.7-3.82,2.09-5.51,1.3-1.56,3.83-1.21,4.85,.39,1.09,1.48,1.73,4.42,2.52,5.29-.09-.06-.24-.11-.38-.13-.31-.02-.36,.05-.23-.05,1.72-1.51,2.64-3.75,4.66-5.26,1.86-1.54,5.1-1.02,6.15,1.48,1.12,2.45,.45,5.53,1.4,7.43,1.67,.08,3.46-1,5.36-1.5,1.52-.46,3.11-.71,4.68-.13,4.64,1.91,3.35,8.04,1.51,11.46-2.66,5.7-9.01,8.86-15.14,8.63h-.38l-.1-.02h-.04s0,0,.18-.03c-.24-4.14-.1-1.15-.17-2.08,2.12,.27,4.5,1.71,4.82,3.95l-.56,.2c-.85-1.68-2.57-2.12-4.24-2.05h-.17c-.08-.92,.03,2.07-.21-2.08,3.31-.53,6.83-2.01,9.11-4.47,1.95-2.16,3.53-5.66,3.04-8.54-.03,0-.04-.09-.04-.01,0,.03,.21,.35,.43,.41,.06,.07,.2,.04,.14,.07-.15,.03-.38,.09-.53,.14-3.02,1.07-6.62,3.26-10.11,1.77-4.38-1.75-4.31-7.29-4.41-10.67,.34,.77,1.58,1.22,2.23,.99,.34-.09,.41-.19,.38-.17-.04,0-.32,.23-.57,.49-2.13,2.11-3.83,5.3-7.47,5.25-3.76-.26-4.68-4.65-5.65-7.36-.05-.13-.12-.26-.1-.23,.75,.86,2.15,.5,2.52,0-.98,2.31-1.27,4.8-3.08,6.97-3.94,4.6-9.76-.31-12.54-3.49l3.27-1.16c-1.03,7.95,3.24,16.08,10.4,19.8l3.47,1.85-3.84,.3c-7.76,.54-14.93,5.43-18.49,12.4l-.54-.26h0Z"/><path class="e" d="M221.83,125.75c4.45-1.22,9.32,1.05,12.16,4.56,1.83,2.1,3.56,6,4.92,8.48-1.98-.4-6.87-1.02-8.67-1.57-1.85-.6-3.52-1.63-5.22-2.46-.65-.29-1.08-.5-1.92-.39l-.47-.37c.5-2.69,4.14-3.32,6.36-3.25,2.09,0,4.18,.77,5.82,1.83l-3.47,3.49c-.64-4.76-4.56-9.11-9.47-9.71l-.04-.6h0Z"/><path class="e" d="M222.25,143.29c4.33,2.68,7.88,6.86,9.14,12.01,.72,2.7,1.18,5.88-.3,8.48-1.43,2.62-3.93,4.53-6.86,4.76l-.38-.47c1.21-3.93,1.42-5.88,2.31-9.15,1.57-5.34-1.22-10.83-4.32-15.19l.4-.45h0Z"/><path class="e" d="M162.81,210.35c8.19-1.21,15.94-4.23,22.51-9.2,4.4-3.03,7.94-8.34,11.04-12.62,2.66-3.62,4.95-7.54,7.61-11.82l.59,.13c.76,7.6-2.22,15.62-7.66,21.02-5.5,5.19-12.21,9.44-19.48,11.38-4.75,1.31-9.68,1.95-14.58,1.72l-.03-.6h0Z"/><path class="e" d="M145.77,219.01c2.42,7.29,4.17,14.97,3.85,22.76-.1,3.64-1.54,7.44-1.4,10.81,.69,3.67,9.3,4.29,12.8,4.88,2.45,.33,4.96,.58,7.56,1.11l.08,.59c-2.39,1.18-4.88,1.98-7.47,2.53-6.95,1.66-18.31,.38-18.29-8.99,.36-4.21,2.17-7.52,2.75-11.42,1.23-7.25,.56-14.8-.48-22.13l.58-.15h0Z"/><path class="e" d="M160.37,216.34c-.33,6.04-.03,11.88,.8,17.83,.54,4.51,1.07,9.51,2.77,13.63,.17,.31,.11,.29,.25,.44,1.2,1.17,2.7,1.83,4.75,2.39,1.75,.49,3.7,.77,5.82,1.16l.14,.58c-6.07,4.52-17.02,3.63-17.54-5.59-.5-10.26-.44-20.63,2.42-30.54l.59,.1h0Z"/><path class="e" d="M155.77,216.84c1.62,5.97,2.94,11.96,3.33,18.21,.3,3.47-.97,8.42-.06,11.41,1.99,4.55,7.7,6,12.02,8.32l-.04,.6c-6.52,2.36-16.64,.31-17.81-7.8-.28-2.57,.4-4.67,.89-6.94,1.89-7.72,1.37-15.76,1.08-23.69l.59-.1h0Z"/></g></g></g></svg>