<?xml version="1.0" encoding="UTF-8"?><svg id="Layer_2" xmlns="http://www.w3.org/2000/svg" xmlns:xlink="http://www.w3.org/1999/xlink" viewBox="0 0 281.73 216.48"><defs><style>.cls-1{stroke:#ed1c24;}.cls-1,.cls-2,.cls-3,.cls-4,.cls-5,.cls-6{stroke-miterlimit:10;}.cls-1,.cls-7{fill:#ed1c24;}.cls-2{fill:#e5d403;}.cls-2,.cls-6{stroke:#fff200;}.cls-8{fill:#d8c800;}.cls-3,.cls-4,.cls-5{stroke:#fff;}.cls-4{fill:#8e4802;}.cls-9{clip-path:url(#clippath);}.cls-10{fill:none;}.cls-5,.cls-6{fill:#fff200;}</style><clipPath id="clippath"><rect class="cls-10" x=".5" y="115.17" width="280.73" height="43.16"/></clipPath></defs><g id="Layer_1-2"><g><path class="cls-7" d="M85.15,76.31c.09-1.46,3.26-2.71,9.5-3.77,4.29-1.44,8.58-2.88,12.86-4.32,7.51-.98,17.69-1.53,29.52,.12,9.94,1.39,18.25,3.94,24.59,6.4-.13-3.33,1.61-6.17,4.14-7.05,1.81-.63,3.5-.06,4.17,.21,2.38-6.13,4.75-12.26,7.13-18.4l.92-1.95c.95-2.02,3.47-6.65,8.84-10,3.91-2.44,7.65-3.16,9.8-3.4-1.74-.85-5.84-3.15-8.8-8-3.43-5.62-3.17-11.14-3-13,2.59,2.66,5.83,5.3,8.2,4.4,3.22-1.23,3.14-8.38,4.8-8.4,1.56-.02,1.85,6.3,4.4,6.8,2.78,.54,5.58-6.42,7.6-5.8,1.95,.6-.04,7.31,3,9.4,3.29,2.26,9-3.26,11.4-1.2,1.85,1.59,.55,6.66-1.68,9.88-3.88,5.6-10.92,6.06-12.12,6.12-.36,.02,1.93-.05,3.4,1.2,.64,.55,.99,1.23,1.2,1.8,0,0,1.33,3.68,2.66,7.36l.34-.02c5.72-.4,10.4,3.96,12.11,9.14-2.2-.71-9.09-3.6-11.1-1.02,0,0-2.35,3.02-4.59,5.91l3.79,3.42c8.31,6.2,9.49,15.41,6.4,18.79-2.69,2.94-9.87,2.88-16.36-1.48-2.64,9.47-5.28,18.94-7.93,28.4-1.72,2.78-3.97,5.76-6.94,8.59-12.42,11.86-28.51,12.8-34.4,12.84,0,0-11.2,.49-19.63,.86-1.66-4.72-2.28-5.37,1.54-.61-17.4,8.53-33.35,4.48-37.23,3.38,0,0-11.92-3.37-23.34-6.6-.83,.68-2.95,2.37-5.86,4-8.31,4.66-17.74,5.84-17.99,5-.24-.81,8.38-2.25,17.19-9.4,4.94-4.01,8.17-8.37,10.2-11.6,.2-.31,11.89-18.96,12.09-19.27l1.03-1.64c1.38-2.2,3.66-5.83,3.68-5.86l-5.54-1.18c-3.66-3.75-7.26-7.44-7.26-7.44-1.85-.93-2.75-1.81-2.7-2.62Z"/><path class="cls-7" d="M84.85,76.29c.06-.59,.44-1,.8-1.3,.38-.3,.79-.51,1.2-.71,.83-.39,1.68-.66,2.54-.9,1.72-.48,3.46-.81,5.21-1.11h-.04l12.87-4.29h.05c9.12-1.23,18.39-1.29,27.55-.3,9.16,1.02,18.19,3.19,26.83,6.45l-.88,.63c-.04-1.16,.09-2.34,.49-3.45,.39-1.11,1.02-2.17,1.9-3,.87-.84,2.04-1.44,3.27-1.62,1.23-.18,2.47,.02,3.59,.45l-1.06,.46,6.89-18.49v-.03l.03-.04c.46-.99,.87-1.97,1.41-3.01,.53-1.01,1.12-1.99,1.77-2.92,1.32-1.86,2.88-3.56,4.67-5,3.56-2.9,7.96-4.73,12.52-5.29l-.43,2.51c-4.09-1.95-7.59-5.16-9.85-9.14-1.14-1.97-1.97-4.14-2.45-6.37-.48-2.23-.64-4.53-.45-6.82l.28-3.33,2.37,2.39c1.38,1.4,2.88,2.74,4.41,3.55,.75,.4,1.5,.57,1.93,.48,.38-.06,.79-.42,1.2-1.14,.39-.7,.7-1.6,.98-2.54,.3-.97,.49-1.92,1.04-3.17,.16-.32,.32-.68,.81-1.15,.16-.13,.29-.24,.49-.34,.21-.11,.42-.2,.68-.23,.5-.1,1.03,.03,1.42,.23,.73,.43,.95,.85,1.17,1.17,.2,.34,.33,.62,.45,.9,.46,1.09,.74,2.05,1.1,2.9,.18,.42,.36,.82,.56,1.1,.19,.3,.38,.45,.4,.44,.01-.01-.09,.02,.1-.05,.17-.08,.47-.28,.77-.56,.6-.57,1.22-1.34,1.86-2.14,.33-.4,.66-.82,1.04-1.25,.39-.43,.79-.88,1.48-1.35,.36-.22,.81-.49,1.52-.56,.71-.08,1.57,.21,2.08,.74,.51,.51,.7,1,.83,1.38,.12,.38,.19,.73,.24,1.04,.18,1.23,.18,2.23,.27,3.2,.08,.95,.22,1.84,.49,2.47,.27,.65,.58,.87,.99,.99,.42,.13,1.17,.06,2.01-.2,.84-.25,1.75-.63,2.73-1.02,1.01-.37,2.02-.84,3.54-.97h.62c.2,0,.42,.04,.67,.1,.24,.06,.47,.12,.7,.21,.23,.12,.46,.25,.68,.4,.86,.59,1.36,1.5,1.57,2.25,.42,1.52,.27,2.77,.07,3.96-.22,1.18-.57,2.28-1.01,3.35-.45,1.06-.98,2.08-1.65,3.07-.7,.96-1.46,1.89-2.37,2.66-1.77,1.59-3.89,2.68-6.06,3.39-1.09,.36-2.2,.62-3.32,.79-.56,.09-1.13,.15-1.71,.19h-.16s0,.01,0,.01c-.35-1.73,.88,3.87,.11-4.05-.15-.02-.06,0-.07,0h.18l.49,.06c.32,.04,.64,.1,.97,.18,.65,.15,1.3,.38,1.96,.74,.65,.35,1.31,.89,1.79,1.51,.48,.6,.84,1.34,1.04,1.93l.53,1.45,2.14,5.8-2.13-1.39c.31-.03,.77-.04,1.18-.05,.42-.02,.84,.02,1.25,.05,.83,.07,1.66,.24,2.46,.48,1.6,.48,3.08,1.28,4.36,2.28,2.57,2.01,4.41,4.74,5.43,7.77l1.42,4.2-4.19-1.41c-1.64-.55-3.01-1.05-4.45-1.42-.71-.18-1.41-.34-2.06-.41-.65-.09-1.29-.1-1.69-.01-.13,0-.18,.04-.25,.07l-.1,.03s-.02,.03-.03,.03c-.01,0-.03,0-.04,0,0,.01,.02,.01,.02,.01,0,0,0,0-.01-.02l-.18,.24-1.46,1.9-2.92,3.8-.28-3.15,3.8,3.4-.17-.14c2.88,2.17,5.42,4.92,7.07,8.27,.82,1.67,1.45,3.47,1.75,5.38,.28,1.91,.28,3.96-.46,6.07-.14,.52-.48,1.05-.74,1.57-.37,.5-.7,1.03-1.18,1.44-.91,.87-1.96,1.43-2.97,1.79-2.05,.74-4.05,.8-5.95,.64-3.81-.37-7.28-1.8-10.34-3.8l3.96-1.46-7.71,28.46-.1,.37-.22,.36c-1.57,2.59-3.39,5.03-5.45,7.27-1.02,1.13-2.12,2.18-3.26,3.18-1.1,1.05-2.34,1.94-3.54,2.88-2.49,1.75-5.1,3.32-7.86,4.58-2.76,1.26-5.6,2.28-8.51,3.07-2.9,.79-5.86,1.34-8.84,1.67-1.49,.15-2.98,.29-4.48,.34-1.48,.04-2.86,.1-4.29,.17l-17.02,.72-2.27,.1-.77-2.15-.7-1.95-.37-1.04c-.07-.2-.13-.38-.21-.67-.04-.15-.09-.3-.15-.71v-.08l-.02-.17c0-.11,0-.22,0-.33v-.17l.04-.22c.02-.1,.04-.2,.06-.3,.11-.41,.27-.75,.55-1.13,.25-.32,.63-.66,1.07-.88,.43-.22,.95-.32,1.29-.33,.34,0,.72,.04,1.06,.15,.15,.05,.38,.14,.45,.18l.13,.07c.09,.05,.17,.1,.25,.16,.2,.14,.23,.17,.3,.22l.19,.16,.2,.2,.27,.29,.41,.48,.7,.86,1.32,1.66,2.39,3-3.43,1.66c-4.96,2.4-10.29,4.04-15.73,4.89-1.36,.23-2.73,.35-4.1,.48-1.37,.07-2.75,.16-4.12,.13-2.75,0-5.49-.2-8.2-.6-2.69-.39-5.45-1.02-8-1.8l-7.48-2.24-14.96-4.51,2.19-.46c-3.23,2.54-6.83,4.6-10.61,6.09-3.79,1.48-7.64,2.57-11.76,3.03-.52,.05-1.05,.09-1.62,.1-.3,0-.58,0-.95-.04-.09,0-.18-.02-.3-.04-.13-.03-.19-.03-.39-.09l-.25-.09c-.06-.02-.29-.13-.41-.22-.07-.05-.14-.1-.21-.16-.12-.11-.26-.26-.36-.42-.11-.16-.19-.34-.24-.51-.06-.22-.09-.47-.06-.71,.07-.58,.19-.68,.33-.92,.06-.1,.17-.23,.21-.27l.12-.12c.08-.07,.18-.16,.25-.2l.16-.1c.12-.08,.2-.12,.28-.16l.23-.11c.29-.13,.53-.22,.78-.31l1.39-.5c1.81-.64,3.56-1.31,5.27-2.09,3.42-1.56,6.66-3.49,9.59-5.84,2.95-2.33,5.58-5.07,7.87-8.09,1.15-1.5,2.17-3.11,3.25-4.74l3.2-4.85,12.65-19.5,.3,.71-5.53-1.23-.13-.03-.09-.09-7.19-7.5,.09,.06c-.59-.31-1.18-.64-1.72-1.07-.27-.22-.53-.45-.75-.75-.22-.29-.4-.68-.37-1.11Zm.6,.04c-.03,.47,.43,.96,.92,1.33,.5,.38,1.06,.69,1.63,.97l.05,.02,.04,.04,7.32,7.38-.21-.12,5.55,1.13,.65,.13-.35,.57-12.05,19.87-2.98,4.99c-.99,1.65-1.97,3.36-3.1,4.99-2.25,3.26-4.89,6.27-7.9,8.89-3,2.63-6.36,4.85-9.92,6.67-1.77,.91-3.61,1.72-5.42,2.45l-1.32,.54c-.2,.09-.41,.18-.56,.26l-.09,.05s-.05,.03-.03,.02h0s.08-.06,.11-.09l.05-.06s.12-.13,.16-.2c.1-.19,.18-.25,.26-.76,.02-.21,0-.44-.07-.62-.04-.15-.1-.3-.19-.44-.08-.14-.21-.26-.31-.35-.04-.04-.08-.08-.13-.11-.07-.06-.25-.13-.25-.14-.03-.01-.05-.02-.08-.03-.08-.02-.02-.01-.03-.02h.06c.11,.01,.31,0,.5,0,.39-.02,.83-.07,1.27-.14,3.56-.56,7.19-1.75,10.54-3.26,3.36-1.51,6.46-3.5,9.22-5.87l.92-.79,1.27,.34,15.1,3.99,7.55,2.01c2.45,.69,4.79,1.17,7.26,1.48,9.79,1.21,19.86-.35,28.67-4.69l-1.04,4.66-1.32-1.63-.64-.77-.28-.32-.09-.09,.02,.02,.08,.08,.19,.14c.06,.04,.13,.08,.2,.12l.1,.05c.06,.03,.27,.13,.41,.17,.32,.1,.68,.15,1,.13,.33,0,.84-.1,1.26-.32,.44-.22,.8-.55,1.04-.87,.27-.36,.42-.67,.53-1.07,.02-.09,.04-.19,.06-.28l.02-.2v-.13c.01-.09,.01-.18,0-.27l-.02-.18c-.03-.24-.04-.21-.03-.2l.11,.33,.34,.94,.74,2.02-3.04-2.06,17.11-.78c1.42-.06,2.88-.11,4.24-.13,1.35-.03,2.7-.14,4.04-.27,2.68-.27,5.35-.74,7.94-1.43,2.6-.68,5.13-1.57,7.56-2.65,2.43-1.09,4.72-2.45,6.91-3.94,1.05-.81,2.15-1.55,3.12-2.46,1.01-.86,1.99-1.75,2.89-2.73,1.82-1.93,3.45-4.04,4.88-6.3l-.32,.72,8.14-28.34,.99-3.46,2.97,2c2.41,1.62,5.18,2.77,7.92,3.07,1.36,.15,2.73,.07,3.78-.31,.54-.17,.97-.42,1.24-.69,.17-.11,.24-.31,.39-.45,.08-.23,.24-.38,.31-.66,.37-.99,.46-2.32,.27-3.65-.19-1.33-.63-2.68-1.24-3.97-1.23-2.58-3.23-4.81-5.56-6.62l-.11-.09-.06-.05-3.77-3.44-1.6-1.46,1.32-1.68,2.96-3.77,1.48-1.88,.19-.24c.13-.15,.27-.29,.42-.43,.14-.14,.29-.28,.44-.41,.16-.1,.31-.2,.48-.29l.49-.27c.16-.07,.31-.11,.47-.16,.31-.1,.64-.2,.91-.23,1.18-.2,2.16-.11,3.08,0,.93,.12,1.79,.33,2.63,.55,1.65,.44,3.28,1.06,4.66,1.54l-2.78,2.79c-.72-2.24-2.1-4.32-3.9-5.75-.9-.72-1.9-1.26-2.96-1.6-.53-.17-1.07-.29-1.61-.34-.27-.02-.55-.07-.82-.05-.29,0-.52,0-.9,.03l-1.59,.14-.54-1.52-2.07-5.82-.52-1.46c-.13-.38-.24-.58-.39-.79-.15-.19-.3-.33-.55-.47-.24-.14-.57-.26-.92-.35-.18-.04-.36-.08-.55-.11l-.28-.03-.28-.02c-.79-7.92,.48-2.32,.14-4.05h.18c.45-.04,.9-.08,1.36-.14,.91-.13,1.82-.33,2.69-.61,1.74-.55,3.37-1.38,4.68-2.53,1.33-1.13,2.33-2.58,3.05-4.27,.36-.83,.64-1.7,.81-2.55,.17-.83,.19-1.69,.06-2.16-.07-.24-.13-.26-.12-.25,0,0,0,0,.02-.01-.01,0-.03,.01-.04,0,.01-.04-.17,0-.24-.02-.55,.02-1.48,.33-2.39,.68-.94,.36-1.93,.77-3.07,1.09-1.12,.3-2.49,.6-4.07,.15-.76-.22-1.53-.67-2.09-1.24-.57-.58-.96-1.25-1.21-1.89-.5-1.29-.62-2.47-.71-3.56-.08-1.08-.09-2.15-.2-2.96-.03-.2-.07-.36-.1-.47-.03-.11-.07-.09,.08,.05,.15,.16,.48,.27,.68,.24,.2-.03,.17-.06,.1,0-.17,.1-.49,.4-.79,.74-.3,.33-.62,.72-.94,1.11-.66,.79-1.32,1.64-2.23,2.48-.46,.41-.99,.85-1.76,1.18-.74,.35-1.97,.45-2.89-.02-.92-.46-1.42-1.12-1.79-1.68-.37-.58-.61-1.13-.83-1.66-.43-1.05-.72-2.08-1.05-2.89-.08-.2-.17-.38-.23-.48-.05-.11-.14-.12,.14,.05,.16,.1,.43,.14,.67,.11,.26-.05,.42-.16,.49-.23,.11-.12,.01-.02-.05,.12-.3,.63-.58,1.7-.89,2.69-.32,1.02-.67,2.09-1.29,3.19-.32,.55-.71,1.11-1.27,1.61-.55,.51-1.33,.91-2.13,1.07-1.64,.26-2.94-.28-4-.82-2.1-1.16-3.66-2.67-5.15-4.2l2.64-.94c-.19,1.96-.07,3.97,.32,5.92,.4,1.94,1.06,3.84,2.03,5.57,1.89,3.49,4.91,6.38,8.49,8.17l4.08,2.05-4.51,.46c-4.09,.42-8.08,1.98-11.33,4.53-1.63,1.27-3.08,2.77-4.31,4.44-.61,.84-1.17,1.72-1.67,2.63-.48,.89-.95,1.91-1.43,2.88l.03-.07-7.37,18.3-.31,.77-.75-.31c-.89-.37-1.86-.54-2.78-.43-.92,.11-1.79,.52-2.49,1.17-.71,.63-1.26,1.48-1.6,2.4-.36,.92-.5,1.93-.49,2.93v.98l-.88-.36c-8.47-3.39-17.39-5.69-26.46-6.88-4.54-.57-9.11-.91-13.69-.88-4.58,.01-9.16,.31-13.7,.89h.05l-12.86,4.33h-.04c-1.73,.31-3.46,.66-5.15,1.13-.84,.24-1.67,.51-2.45,.88-.74,.35-1.58,.87-1.65,1.52Z"/></g><path class="cls-1" d="M136.99,132.26c-.66,41.93,1.33,54.21,3.96,54.5,1.06,.12,2.88-1.63,6.28-1.32,2.06,.19,3.36,1.01,4.62,1.65,5.68,2.89,12.31,3.04,12.55,2.31,.39-1.16-14.51-6.74-14.2-7.6,.3-.84,14.6,4.37,15.19,2.97,.37-.88-4.55-4.51-10.57-6.28-5.31-1.56-7.84-.59-9.91-1.32-4.49-1.58-7.76-11.49-3.96-45.58"/><path class="cls-1" d="M144.21,126.18c-.66,41.93,1.33,54.21,3.96,54.5,1.06,.12,2.88-1.63,6.28-1.32,2.06,.19,3.36,1.01,4.62,1.65,5.68,2.89,12.31,3.04,12.55,2.31,.39-1.16-14.51-6.74-14.2-7.6,.3-.84,14.6,4.37,15.19,2.97,.37-.88-4.55-4.51-10.57-6.28-5.31-1.56-7.84-.59-9.91-1.32-4.49-1.58-7.76-11.49-3.96-45.58"/><path class="cls-1" d="M102.56,95.03c1.28-9.8-21.98-20.09-28.07-22.79-29.3-12.97-59.18-12.38-59.45-10.57-.09,.63,3.47,1.08,15.52,4.95,17.41,5.6,26.12,8.4,34.68,13.21,19.02,10.7,25.35,24.08,32.7,21.14,2.45-.98,4.31-3.51,4.62-5.95Z"/><path class="cls-1" d="M89.46,98.09c-12.61-4.18-26.98,22.79-55.09,30.05-9.98,2.58-16.36,1.29-16.36,1.98,0,1.36,24.87,4.48,48.82-3.63,0,0,9.48-3.21,23.73-16.84,1.73-1.66,4.57-4.55,4.09-7.27-.48-2.74-4.1-3.94-5.18-4.29Z"/><path class="cls-1" d="M87.36,103.65c-2.07,1.3-6.64-7.73-17.83-12.88-10.28-4.72-18.82-2.81-18.83-3.63,0-1.08,14.46-3.09,27.08,1.65,2.65,1,5.26,2.3,7.27,4.95,2.75,3.63,3.78,8.99,2.31,9.91Z"/><path class="cls-1" d="M98.26,79.77c-2.82-6.49-10.76-22.35-28.4-33.03-11.93-7.22-23.15-8.96-29.72-9.91-6.51-.94-16.17-1.59-16.51,0-.4,1.83,12.08,4.21,29.72,13.87,11.98,6.56,18.63,12.26,20.48,13.87,6.69,5.85,11.42,11.61,14.53,15.85"/><g><g><rect class="cls-5" x=".5" y="115.17" width="280.73" height="43.16"/><g class="cls-9"><rect class="cls-3" x="-16.8" y="123.69" width="97.26" height="27.79" transform="translate(-87.96 62.81) rotate(-45)"/><rect class="cls-3" x="51.24" y="123.69" width="97.26" height="27.79" transform="translate(-68.04 110.92) rotate(-45)"/><rect class="cls-3" x="119.28" y="123.69" width="97.26" height="27.79" transform="translate(-48.11 159.03) rotate(-45)"/><rect class="cls-3" x="187.31" y="123.69" width="97.26" height="27.79" transform="translate(-28.18 207.14) rotate(-45)"/><rect class="cls-3" x="255.35" y="123.69" width="97.26" height="27.79" transform="translate(-8.26 255.24) rotate(-45)"/></g></g><polyline class="cls-4" points="69.53 158.34 69.53 215.98 84.06 215.98 84.06 158.34"/><polyline class="cls-4" points="180.17 158.34 180.17 215.98 194.7 215.98 194.7 158.34"/></g><g><path class="cls-6" d="M171.01,29.47c-.43-5.59,2.8-14.83,10.59-21.38,2.14-1.8,10.51-8.84,22.44-7.4,10.74,1.3,16.96,8.58,18.38,10.33,5.95,7.36,6.33,15.38,6.35,17.84,9.97,3.36,11.93,5.4,11.79,6.65-.11,1.04-1.71,1.97-1.97,2.12-2.06,1.2-4.97,.91-4.99,.91-.02,0,.01,0,0,0-2.54,0-3.8,0-7.71,1.06-3.59,.97-15.51,1.89-27.37,.6-9.79-1.06-7.2-2.29-16.63-3.33-3.44-.38-5.58,4.27-7.67,1.27-.52-.75-3.07-6.78-3.22-8.68Z"/><polyline class="cls-2" points="228.77 28.87 228.03 30.89 223.5 34.47 216.21 36.5"/><polygon class="cls-8" points="217.38 10.24 209.02 4.14 196.61 3.31 190.84 4.51 199.36 4.28 209.14 5.67 217.38 10.24"/></g></g></svg>